<svg width="28" height="36" viewBox="0 0 28 36" fill="none" xmlns="http://www.w3.org/2000/svg">
<path fill-rule="evenodd" clip-rule="evenodd" d="M20.8 1.4H7.2C5.66892 1.4 4.63307 1.40192 3.84461 1.48735C3.08234 1.56993 2.71906 1.71688 2.47176 1.89656C2.25103 2.05692 2.05692 2.25103 1.89656 2.47176C1.71688 2.71906 1.56993 3.08234 1.48735 3.84461C1.40192 4.63307 1.4 5.66892 1.4 7.2V28.8C1.4 30.3311 1.40192 31.3669 1.48735 32.1554C1.56993 32.9177 1.71688 33.2809 1.89656 33.5282C2.05692 33.749 2.25103 33.9431 2.47176 34.1034C2.71906 34.2831 3.08234 34.4301 3.84461 34.5127C4.63307 34.5981 5.66892 34.6 7.2 34.6H20.8C22.3311 34.6 23.3669 34.5981 24.1554 34.5127C24.9177 34.4301 25.2809 34.2831 25.5282 34.1034C25.749 33.9431 25.9431 33.749 26.1034 33.5282C26.2831 33.2809 26.4301 32.9177 26.5127 32.1554C26.5981 31.3669 26.6 30.3311 26.6 28.8V7.2C26.6 5.66892 26.5981 4.63307 26.5127 3.84461C26.4301 3.08234 26.2831 2.71906 26.1034 2.47176C25.9431 2.25103 25.749 2.05692 25.5282 1.89656C25.2809 1.71688 24.9177 1.56993 24.1554 1.48735C23.3669 1.40192 22.3311 1.4 20.8 1.4ZM0.763932 1.64886C0 2.70032 0 4.20021 0 7.2V28.8C0 31.7998 0 33.2997 0.763932 34.3511C1.01065 34.6907 1.30928 34.9893 1.64886 35.2361C2.70032 36 4.20021 36 7.2 36H20.8C23.7998 36 25.2997 36 26.3511 35.2361C26.6907 34.9893 26.9893 34.6907 27.2361 34.3511C28 33.2997 28 31.7998 28 28.8V7.2C28 4.20021 28 2.70032 27.2361 1.64886C26.9893 1.30928 26.6907 1.01065 26.3511 0.763932C25.2997 0 23.7998 0 20.8 0H7.2C4.20021 0 2.70032 0 1.64886 0.763932C1.30928 1.01065 1.01065 1.30928 0.763932 1.64886Z" fill="#171717"/>
<path fill-rule="evenodd" clip-rule="evenodd" d="M27 18.5H1V17H27V18.5Z" fill="#171717"/>
<path fill-rule="evenodd" clip-rule="evenodd" d="M13 35L13 1L14.5 1L14.5 35L13 35Z" fill="#171717"/>
</svg>
