<svg width="28" height="36" viewBox="0 0 28 36" fill="none" xmlns="http://www.w3.org/2000/svg">
<path fill-rule="evenodd" clip-rule="evenodd" d="M3.85538 1.58676C4.6372 1.50206 5.66669 1.5 7.2 1.5H20.8C22.3333 1.5 23.3628 1.50206 24.1446 1.58676C24.8984 1.66843 25.2421 1.81223 25.4695 1.97746C25.6817 2.13166 25.8683 2.3183 26.0225 2.53054C26.1878 2.75795 26.3316 3.10162 26.4132 3.85538C26.4979 4.6372 26.5 5.66669 26.5 7.2V24.8C26.5 26.3333 26.4979 27.3628 26.4132 28.1446C26.3316 28.8984 26.1878 29.2421 26.0225 29.4695C25.8683 29.6817 25.6817 29.8683 25.4695 30.0225C25.2421 30.1878 24.8984 30.3316 24.1446 30.4132C23.3628 30.4979 22.3333 30.5 20.8 30.5H7.2C5.6667 30.5 4.6372 30.4979 3.85538 30.4132C3.10162 30.3316 2.75795 30.1878 2.53054 30.0225C2.3183 29.8683 2.13166 29.6817 1.97746 29.4695C1.81223 29.2421 1.66843 28.8984 1.58676 28.1446C1.50206 27.3628 1.5 26.3333 1.5 24.8V7.2L1.50004 6.91835C1.50058 5.53898 1.50735 4.58834 1.58676 3.85538C1.59187 3.80827 1.59722 3.76276 1.60279 3.71878C1.68649 3.05912 1.82256 2.74374 1.97746 2.53054C2.13166 2.3183 2.3183 2.13166 2.53054 1.97746C2.75795 1.81223 3.10162 1.66843 3.85538 1.58676ZM0 24.8V7.2C0 7.01252 0 6.83089 0.000186507 6.65486C0.00298411 4.01448 0.0477458 2.6346 0.763932 1.64886C1.01065 1.30928 1.30928 1.01065 1.64886 0.763932C2.70032 0 4.20021 0 7.2 0H20.8C23.7998 0 25.2997 0 26.3511 0.763932C26.6907 1.01065 26.9893 1.30928 27.2361 1.64886C28 2.70032 28 4.20021 28 7.2V24.8V28.8C28 31.7998 28 33.2997 27.2361 34.3511C26.9893 34.6907 26.6907 34.9893 26.3511 35.2361C25.2997 36 23.7998 36 20.8 36H7.2C4.20021 36 2.70032 36 1.64886 35.2361C1.30928 34.9893 1.01065 34.6907 0.763932 34.3511C0 33.2997 0 31.7998 0 28.8V24.8ZM26.4782 31.1399C26.4654 31.5192 26.4452 31.8496 26.4132 32.1446C26.3316 32.8984 26.1878 33.2421 26.0225 33.4695C25.8683 33.6817 25.6817 33.8683 25.4695 34.0225C25.2421 34.1878 24.8984 34.3316 24.1446 34.4132C23.3628 34.4979 22.3333 34.5 20.8 34.5H7.2C5.6667 34.5 4.6372 34.4979 3.85538 34.4132C3.10162 34.3316 2.75795 34.1878 2.53054 34.0225C2.3183 33.8683 2.13166 33.6817 1.97746 33.4695C1.81223 33.2421 1.66843 32.8984 1.58676 32.1446C1.5548 31.8496 1.5346 31.5192 1.52184 31.1399C1.56351 31.1727 1.60586 31.2048 1.64886 31.2361C2.70032 32 4.20021 32 7.2 32H20.8C23.7998 32 25.2997 32 26.3511 31.2361C26.3941 31.2048 26.4365 31.1727 26.4782 31.1399ZM10 7.5C10 8.32843 9.32843 9 8.5 9C7.67157 9 7 8.32843 7 7.5C7 6.67157 7.67157 6 8.5 6C9.32843 6 10 6.67157 10 7.5ZM19.5 9C20.3284 9 21 8.32843 21 7.5C21 6.67157 20.3284 6 19.5 6C18.6716 6 18 6.67157 18 7.5C18 8.32843 18.6716 9 19.5 9ZM14 13.25C10.5482 13.25 7.75 16.0482 7.75 19.5C7.75 22.9518 10.5482 25.75 14 25.75C17.4518 25.75 20.25 22.9518 20.25 19.5C20.25 16.0482 17.4518 13.25 14 13.25ZM6.25 19.5C6.25 15.2198 9.71979 11.75 14 11.75C18.2802 11.75 21.75 15.2198 21.75 19.5C21.75 23.7802 18.2802 27.25 14 27.25C9.71979 27.25 6.25 23.7802 6.25 19.5ZM14.25 20.25V16.25H12.75V21C12.75 21.4142 13.0858 21.75 13.5 21.75H16.75V20.25H14.25Z" fill="#171717"/>
</svg>
